HIERARCHY
ROOT pelvis
{
  OFFSET 0 100 0
  CHANNELS 6 Xposition Yposition Zposition Zrotation Xrotation Yrotation
  JOINT pelvis_right_femur
  {
    OFFSET -10.78128 -3.44521 -0.5502486
    CHANNELS 3 Zrotation Xrotation Yrotation
    JOINT right_femur_tibia
    {
      OFFSET -0.8047443 -44.0398 -0.1307829
      CHANNELS 3 Zrotation Xrotation Yrotation
      JOINT right_tibia_foot
      {
        OFFSET 3.006224 -47.83518 -5
        CHANNELS 3 Zrotation Xrotation Yrotation
        End Site
        {
          OFFSET 0 -5 15
        }
      }
    }
  }
  JOINT pelvis_left_femur
  {
    OFFSET 10.78128 -3.44521 -0.5502486
    CHANNELS 3 Zrotation Xrotation Yrotation
    JOINT left_femur_tibia
    {
      OFFSET 0.8047443 -44.0398 -0.1307829
      CHANNELS 3 Zrotation Xrotation Yrotation
      JOINT left_tibia_foot
      {
        OFFSET -4.370144 -48.10324 -4.275266
        CHANNELS 3 Zrotation Xrotation Yrotation
        End Site
        {
          OFFSET 0 -5 15
        }
      }
    }
  }
  JOINT pelvis_spine1
  {
    OFFSET 0 6.468898 -3.129235
    CHANNELS 3 Zrotation Xrotation Yrotation
    JOINT spine1
    {
      OFFSET 0 23.15396 4.99043
      CHANNELS 3 Zrotation Xrotation Yrotation
      JOINT spine2
      {
        OFFSET 0 20.79997 -5.064912
        CHANNELS 3 Zrotation Xrotation Yrotation
        JOINT neck
        {
          OFFSET 0 14.38658 9.616178
          CHANNELS 3 Zrotation Xrotation Yrotation
          End Site
          {
            OFFSET 0 20 0
          }
        }
      }
      JOINT right_manubrium
      {
        OFFSET -5.722621 16.35077 3.967754
        CHANNELS 3 Zrotation Xrotation Yrotation
        JOINT right_clavicle
        {
          OFFSET -13.16364 1.694482 -4.693211
          CHANNELS 3 Zrotation Xrotation Yrotation
          JOINT right_humerus
          {
            OFFSET -28.5034 -0.3100689 -2.792744
            CHANNELS 3 Zrotation Xrotation Yrotation
            JOINT right_radius
            {
              OFFSET -25.15693 0.02248979 -1.271978
              CHANNELS 3 Zrotation Xrotation Yrotation
              End Site
              {
                OFFSET -15 0 0
              }
            }
          }
        }
      }
      JOINT left_manubrium
      {
        OFFSET 5.722621 16.35077 3.967754
        CHANNELS 3 Zrotation Xrotation Yrotation
        JOINT left_clavicle
        {
          OFFSET 13.16364 1.694482 -4.693211
          CHANNELS 3 Zrotation Xrotation Yrotation
          JOINT left_humerus
          {
            OFFSET 29.39168 -1.063119 -2.237045
            CHANNELS 3 Zrotation Xrotation Yrotation
            JOINT left_radius
            {
              OFFSET 24.59957 -0.9528479 0.9047498
              CHANNELS 3 Zrotation Xrotation Yrotation
              End Site
              {
                OFFSET 15 -0 -0
              }
            }
          }
        }
      }
    }
  }
}
MOTION
Frames: 13
Frame Time: 0.0416666666667
1518.618 96.24083 2596.71 6.46863 -2.294961 53.96158 0.0569611 16.56442 5.899247 -0 35.52833 -0 6.376816 -8.730565 -2.990274 -2.240362 -22.29098 -5.840139 -0 24.24927 -0 -6.643083 -8.700058 17.83087 -2.628013 -0.3352774 8.826677 -1.091843 9.651554 -2.996508 2.359265 21.40997 5.601425 2.027916 -16.81027 7.560475 2.350955 -20.86899 11.0084 79.46823 23.84958 -5.003457 -0 0 24.58988 -26.52718 13.89591 14.57722 3.436017 -14.24648 -2.752921 -92.7418 22.854 25.69185 0 0 -10.08264 -3.41035 6.258429 18.03162
1525.027 96.9466 2599.685 7.31513 -2.272566 54.519 -0.680483 14.7832 5.650632 -0 43.5819 -0 7.092637 -5.562951 -4.050616 -3.736399 -18.91338 -7.004694 -0 25.26278 -0 -6.715848 -9.415969 17.34453 -3.120847 -0.3640142 8.414955 -1.343046 9.691196 -3.024949 2.391565 21.6766 5.795527 1.948245 -16.44518 7.912913 2.775531 -20.06705 10.89715 80.51888 24.42581 -5.947254 -0 0 23.21563 -26.79189 14.53898 14.42716 3.159551 -14.02354 -3.069935 -92.17644 23.17795 25.00189 0 0 -9.738653 -3.696454 6.481405 18.3746
1531.257 97.9835 2602.527 8.093774 -2.445648 55.41419 -0.9528694 11.83019 5.371923 -0 49.71227 -0 7.349111 -3.516529 -5.221481 -4.699867 -15.08702 -7.726464 -0 25.23788 -0 -6.82662 -10.35073 16.91265 -3.314265 -0.1751784 7.712047 -1.476454 9.720867 -3.242104 2.393458 22.00253 5.813143 1.785926 -15.91837 8.066874 2.89945 -19.27851 10.72085 81.79482 24.44598 -7.058128 -0 0 21.94021 -26.25541 14.54675 13.96497 3.1193 -14.1001 -3.375935 -91.3258 23.54035 23.49137 0 0 -9.887777 -3.693398 6.630621 18.29838
1537.23 99.11144 2605.23 8.713287 -2.720878 56.52867 -0.8885335 7.867154 5.042597 -0 53.33322 -0 7.099196 -2.6425 -6.37316 -5.214694 -10.86717 -8.128879 -0 24.12403 -0 -6.920626 -11.54493 16.49948 -3.291272 0.1558107 6.787333 -1.454383 9.672928 -3.63758 2.384417 22.36264 5.699871 1.583483 -15.33708 8.077119 2.728605 -18.47257 10.46995 83.18633 24.03592 -8.320874 -0 0 20.66304 -25.07486 14.01625 13.23662 3.300679 -14.45109 -3.64934 -90.23003 23.97001 21.25475 0 0 -10.48439 -3.440569 6.793976 17.83783
1542.92 100.1248 2607.817 9.078723 -2.968892 57.74812 -0.654643 2.975197 4.620114 -0 54.36447 -0 6.400097 -2.637292 -7.424728 -5.42633 -6.26338 -8.359994 -0 22.15497 -0 -6.926778 -12.98375 16.01132 -3.16136 0.5342759 5.734416 -1.280154 9.534308 -4.197325 2.364495 22.71138 5.573607 1.388186 -14.82565 8.060201 2.403614 -17.60195 10.182 84.59812 23.63771 -9.816511 -0 0 19.18918 -23.67039 13.36808 12.40136 3.647513 -15.08001 -3.897512 -88.85445 24.4434 18.42402 0 0 -11.67058 -2.983796 7.083731 17.09658
1548.344 100.8592 2610.334 9.083179 -3.084629 58.97606 -0.3768085 -2.79644 4.071111 -0 52.80019 -0 5.345019 -3.155397 -8.324961 -5.446273 -1.324811 -8.513392 -0 19.58368 -0 -6.766527 -14.61444 15.37648 -3.008654 0.875733 4.640999 -0.9663556 9.329607 -4.915789 2.319553 22.98274 5.544241 1.238523 -14.48699 8.108526 2.083282 -16.65001 9.905886 85.96424 23.68779 -11.64406 -0 0 17.39349 -22.43096 13.03911 11.61364 4.119977 -16.00973 -4.12187 -87.16272 24.8516 15.12311 0 0 -13.61635 -2.32959 7.557028 16.13598
1553.553 101.1878 2612.839 8.642276 -3.000167 60.13407 -0.1371673 -9.237704 3.386785 -0 48.54159 -0 4.07326 -3.89874 -9.028657 -5.350871 3.75533 -8.617666 -0 16.75348 -0 -6.387015 -16.33242 14.58304 -2.893145 1.10599 3.606106 -0.522599 9.105342 -5.773561 2.235453 23.09956 5.675709 1.163741 -14.39446 8.260246 1.887901 -15.64844 9.689945 87.24576 24.43156 -13.85446 -0 0 15.28163 -21.63334 13.33418 11.00292 4.698277 -17.23882 -4.307358 -85.21087 25.01029 11.54012 0 0 -16.37756 -1.475236 8.178304 14.98037
1558.642 101.0326 2615.397 7.780602 -2.693991 61.16707 0.01210956 -15.76628 2.593853 -0 41.63655 -0 2.819571 -4.591732 -9.506916 -5.214583 8.585711 -8.649958 -0 14.28629 -0 -5.829535 -17.95179 13.69673 -2.857633 1.165769 2.752733 0.02504505 8.912191 -6.694037 2.118722 23.00843 5.962443 1.178091 -14.55557 8.498328 1.868515 -14.66351 9.571462 88.42707 25.8044 -16.37574 -0 0 13.00307 -21.4331 14.33923 10.67326 5.360542 -18.67752 -4.430507 -83.21254 24.72661 8.001459 0 0 -19.75927 -0.4680368 8.818517 13.67558
1563.746 100.3875 2618.078 6.730419 -2.218597 62.05129 0.05128264 -21.40572 1.758582 -0 32.73793 -0 1.867057 -4.967106 -9.779505 -5.119855 12.6836 -8.559668 -0 13.08843 -0 -5.308146 -19.21132 12.84442 -2.9125 1.038818 2.188324 0.5996222 8.777817 -7.517631 2.010997 22.74336 6.311729 1.277614 -14.84911 8.746779 1.972972 -13.74661 9.553423 89.50158 27.35973 -18.95775 -0 0 10.79632 -21.79103 15.79886 10.62955 6.064495 -20.1223 -4.487913 -81.49204 23.93116 4.901515 0 0 -23.25024 0.5710662 9.311664 12.32071
1569.017 99.3407 2620.953 5.900459 -1.713626 62.78956 0.01953411 -25.12905 0.99438 -0 23.40174 -0 1.360862 -4.820682 -9.909292 -5.109614 15.70879 -8.323755 -0 13.96307 -0 -5.17586 -19.83585 12.15594 -3.004482 0.7773672 1.934915 1.061348 8.694923 -8.043383 1.971244 22.44901 6.572447 1.457238 -15.04019 8.87661 2.068293 -12.9002 9.594051 90.42814 28.43433 -21.2065 -0 0 8.877646 -22.38071 17.10625 10.65993 6.744671 -21.32858 -4.522085 -80.31267 22.77275 2.522975 0 0 -26.16239 1.526896 9.565582 11.00993
1574.572 98.09193 2624.075 5.615231 -1.370995 63.39145 0.08476811 -26.39136 0.5128387 -0 15.85436 -0 1.173058 -4.182965 -9.937446 -5.1083 17.5638 -8.019138 -0 17.08775 -0 -5.662418 -19.5957 11.73333 -3.004763 0.4768728 1.910564 1.274824 8.654405 -8.150937 2.029195 22.28675 6.613963 1.713826 -14.9716 8.764396 2.066141 -12.14419 9.644231 91.10482 28.60525 -22.73242 -0 0 7.398245 -22.64741 17.61724 10.38683 7.29509 -22.11482 -4.58659 -79.7568 21.60016 1.015358 0 0 -27.91976 2.374695 9.625323 9.798074
1580.42 96.9379 2627.448 5.85683 -1.391433 63.84876 0.5374532 -25.46956 0.5938044 -0 12.18461 -0 0.9814793 -3.609449 -9.879672 -4.906853 18.36696 -7.857225 -0 21.90806 -0 -6.623649 -18.38933 11.64432 -2.758672 0.2319921 1.94753 1.232344 8.637767 -7.901159 2.183458 22.35527 6.373933 1.963402 -14.74101 8.43051 1.998443 -11.55823 9.67705 91.4479 28.01405 -23.32265 -0 0 6.427976 -22.10101 17.13548 9.590532 7.524043 -22.3554 -4.663705 -79.7166 20.97611 0.4181406 0 0 -28.26562 3.055982 9.701769 8.871364
1586.414 96.16982 2631.023 6.403703 -1.93491 64.11919 1.495681 -23.3979 1.258203 -0 13.14438 -0 0.3916889 -4.212464 -9.83781 -4.316869 18.60027 -8.122833 -0 27.58576 -0 -7.679691 -16.47691 11.88003 -2.231011 0.1542726 1.79363 1.077207 8.485471 -7.45321 2.4886 22.8069 5.81778 1.978975 -14.49821 8.12785 1.869742 -11.05678 9.620051 91.53536 27.12431 -22.98988 -0 0 5.764011 -20.56804 15.98458 8.361887 7.237834 -21.93842 -4.644615 -79.88306 21.54283 0.2786697 0 0 -27.23191 3.446929 10.25557 8.438114
